<?xml version="1.0" encoding="utf-8"?>
<!-- Generator: Adobe Illustrator 25.2.1, SVG Export Plug-In . SVG Version: 6.00 Build 0)  -->
<svg version="1.1" id="Camada_1" xmlns="http://www.w3.org/2000/svg" xmlns:xlink="http://www.w3.org/1999/xlink" x="0px" y="0px"
	 viewBox="0 0 24 24" style="enable-background:new 0 0 24 24;" xml:space="preserve">
<style type="text/css">
	.st0{fill-rule:evenodd;clip-rule:evenodd;fill:#FFFFFF;}
	.st1{fill:#FFFFFF;}
</style>
<g>
	<g>
		<path class="st0" d="M6.7,10.4c1.5,3.2,4.1,5.7,7.3,7.1l0,0l0.6,0.3c0.8,0.4,1.7,0.1,2.2-0.6l1-1.4c0.1-0.1,0-0.2,0-0.3L16,14
			c-0.1-0.1-0.2-0.1-0.3,0L15,15c-0.2,0.2-0.5,0.3-0.7,0.2c-2.4-1.1-4.4-3-5.5-5.5C8.7,9.4,8.8,9.1,9,9l1-0.7c0.1-0.1,0.1-0.2,0-0.3
			L8.6,6.1C8.5,6.1,8.4,6,8.3,6.1l-1.4,1c-0.7,0.5-1,1.5-0.6,2.3L6.7,10.4C6.7,10.4,6.7,10.4,6.7,10.4z M13.5,18.6
			c-3.5-1.5-6.3-4.2-7.9-7.7l0,0l-0.5-1C4.5,8.6,4.9,7,6.1,6.2l1.4-1c0.6-0.4,1.5-0.3,2,0.3L11,7.2c0.5,0.6,0.4,1.6-0.3,2l-0.5,0.4
			c0.9,1.8,2.4,3.3,4.2,4.2l0.4-0.5c0.5-0.7,1.4-0.8,2-0.3l1.8,1.5c0.6,0.5,0.7,1.3,0.3,2l-1,1.4c-0.8,1.2-2.4,1.6-3.7,1L13.5,18.6z
			"/>
	</g>
	<g>
		<path class="st1" d="M12,24C5.4,24,0,18.6,0,12C0,5.4,5.4,0,12,0s12,5.4,12,12C24,18.6,18.6,24,12,24z M12,1.5
			C6.2,1.5,1.5,6.2,1.5,12S6.2,22.5,12,22.5S22.5,17.8,22.5,12S17.8,1.5,12,1.5z"/>
	</g>
</g>
</svg>
